<svg xmlns="http://www.w3.org/2000/svg" width="20.545" height="20.545" viewBox="0 0 20.545 20.545"><defs><style>.a{fill:#003c73;}</style></defs><path class="a" d="M10.273,0C8.557,0,0,.145,0,3v2.84A2.563,2.563,0,0,0,.924,7.81L7.7,13.456v6.233a.856.856,0,0,0,1.37.685l3.081-2.31a1.722,1.722,0,0,0,.686-1.371V13.456l6.78-5.646a2.563,2.563,0,0,0,.924-1.973V3C20.545.145,11.988,0,10.273,0Zm0,1.712c4.784,0,7.663.776,8.426,1.284-.763.508-3.642,1.284-8.426,1.284S2.609,3.5,1.846,3C2.609,2.489,5.488,1.712,10.273,1.712Zm0,0"/></svg>